/* XPM */
static char * hh_logo_xpm[] = {
"64 64 8 1",
" 	c None",
".	c #000000",
"+	c #FBF2BB",
"@	c #FBF236",
"#	c #45283C",
"$	c #76428A",
"%	c #99E550",
"&	c #AC3232",
"                                                                ",
"                                                                ",
"                                                                ",
"                                                                ",
"                                                      ....      ",
"                                                      ....      ",
"                                                    ..++++..    ",
"                                                    ..++++..    ",
"                                                  ..++....++..  ",
"                                                  ..++....++..  ",
"                                                    ..  ..@@..  ",
"                                                    ..  ..@@..  ",
"                      ....  ..........                  ..@@++..",
"                      ....  ..........                  ..@@++..",
"                  ....@@++..##########..              ..@@@@++..",
"                  ....@@++..##########..              ..@@@@++..",
"                ..@@@@@@@@++##$$%%######............  ..@@@@++..",
"                ..@@@@@@@@++##$$%%######............  ..@@@@++..",
"                  ....&&&&++##########$$############......@@@@..",
"                  ....&&&&++##########$$############......@@@@..",
"                    ..@@@@....######$$####################@@@@..",
"                    ..@@@@....######$$####################@@@@..",
"          ................##########$$####################@@@@..",
"          ................##########$$####################@@@@..",
"    ......++++++++++++##################################....@@..",
"    ......++++++++++++##################################....@@..",
"  ..++++++@@@@@@@@@@############################........    ..  ",
"  ..++++++@@@@@@@@@@############################........    ..  ",
"..++..............####..######..######$$$$####..                ",
"..++..............####..######..######$$$$####..                ",
"..@@....          ....  ......######$$$$$$######..              ",
"..@@....          ....  ......######$$$$$$######..              ",
"  ..++++..                  ..####$$$$$$$$######..              ",
"  ..++++..                  ..####$$$$$$$$######..              ",
"    ....                  ..##..##$$$$$$$$$$####..              ",
"    ....                  ..##..##$$$$$$$$$$####..              ",
"                            ..######$$$$$$$$####..              ",
"                            ..######$$$$$$$$####..              ",
"                          ..########$$$$$$$$####..              ",
"                          ..########$$$$$$$$####..              ",
"                            ....######$$$$########..            ",
"                            ....######$$$$########..            ",
"                          ..########################..          ",
"                          ..########################..          ",
"                        ..############################..        ",
"                        ..############################..        ",
"                      ..##########$$....######..########..      ",
"                      ..##########$$....######..########..      ",
"                    ..$$######$$$$..    ..##......######$$..    ",
"                    ..$$######$$$$..    ..##......######$$..    ",
"                    ..++$$##......        ..  ..########$$..    ",
"                    ..++$$##......        ..  ..########$$..    ",
"                    ..@@++$$..                  ..$$++$$..      ",
"                    ..@@++$$..                  ..$$++$$..      ",
"                  ....++....                      ..@@++..      ",
"                  ....++....                      ..@@++..      ",
"                ..++++..                          ..@@++..++..  ",
"                ..++++..                          ..@@++..++..  ",
"              ..++....@@..                      ..++....@@..@@  ",
"              ..++....@@..                      ..++....@@..@@  ",
"                                                                ",
"                                                                ",
"                                                                ",
"                                                                "};
