/* XPM */
static char * nwnx4_icon_xpm[] = {
"16 16 49 1",
" 	c None",
".	c #555555",
"+	c #000000",
"@	c #989898",
"#	c #F1F1F1",
"$	c #F8F8F8",
"%	c #FFFFFF",
"&	c #FF2525",
"*	c #FF6666",
"=	c #FAFAFA",
"-	c #FEFEFE",
";	c #FF6F6F",
">	c #FF3030",
",	c #FFB7B7",
"'	c #FF7979",
")	c #F9F9F9",
"!	c #FF8585",
"~	c #FF3333",
"{	c #FF1414",
"]	c #FFADAD",
"^	c #0E0E0E",
"/	c #898989",
"(	c #8E8E8E",
"_	c #D6D6D6",
":	c #6E6E6E",
"<	c #ABABAB",
"[	c #B5B5B5",
"}	c #111111",
"|	c #707070",
"1	c #4A4A4A",
"2	c #101010",
"3	c #181818",
"4	c #3F3F3F",
"5	c #C7C7C7",
"6	c #0B0B0B",
"7	c #C4C4C4",
"8	c #373737",
"9	c #171717",
"0	c #5F5F5F",
"a	c #525252",
"b	c #131313",
"c	c #8F8F8F",
"d	c #090909",
"e	c #A2A2A2",
"f	c #888888",
"g	c #B9B9B9",
"h	c #606060",
"i	c #F7F7F7",
"j	c #CECECE",
" .+@#######@.+. ",
"..############..",
"+$%%%%%%%%%%&*=+",
".$-%%%%%%%%;>*=.",
"@$-%%%%%%%,'**)@",
"#$-%%%%%%%!~{{]#",
"#$%^/%%(^_%%**$#",
"#$%:^<[}|%%%%%%#",
"#$%%1234%%%%%%$#",
"#$%%5^67%%%%%%$#",
"#$%%8920%%%%%%$#",
"@$%ab[cde%%%%%$@",
".)f2g--h9-----i.",
"+)%j%%%%[%%%%%i+",
"..############..",
" .+.@######@.+. "};
