/* XPM */
static char * nwnx4_logo_xpm[] = {
"80 80 257 2",
"  	c None",
". 	c #E7E7E7",
"+ 	c #DEDEDE",
"@ 	c #D3D3D3",
"# 	c #C9C9C9",
"$ 	c #BFBFBF",
"% 	c #B7B7B7",
"& 	c #B2B2B2",
"* 	c #AEAEAE",
"= 	c #ACACAC",
"- 	c #AAAAAA",
"; 	c #A9A9A9",
"> 	c #A8A8A8",
", 	c #A7A7A7",
"' 	c #B1B1B1",
") 	c #EEEEEE",
"! 	c #E5E5E5",
"~ 	c #DBDBDB",
"{ 	c #D0D0D0",
"] 	c #C6C6C6",
"^ 	c #BEBEBE",
"/ 	c #B8B8B8",
"( 	c #B4B4B4",
"_ 	c #B0B0B0",
": 	c #AFAFAF",
"< 	c #ADADAD",
"[ 	c #ABABAB",
"} 	c #B6B6B6",
"| 	c #F8F8F8",
"1 	c #EFEFEF",
"2 	c #C3C3C3",
"3 	c #BCBCBC",
"4 	c #BABABA",
"5 	c #B9B9B9",
"6 	c #B5B5B5",
"7 	c #B3B3B3",
"8 	c #FAFAFA",
"9 	c #F1F1F1",
"0 	c #E8E8E8",
"a 	c #DDDDDD",
"b 	c #D5D5D5",
"c 	c #CFCFCF",
"d 	c #CBCBCB",
"e 	c #C8C8C8",
"f 	c #C5C5C5",
"g 	c #C2C2C2",
"h 	c #C0C0C0",
"i 	c #BDBDBD",
"j 	c #BBBBBB",
"k 	c #F0F0F0",
"l 	c #F7F7F7",
"m 	c #FBFBFB",
"n 	c #F6F6F6",
"o 	c #ECECEC",
"p 	c #DFDFDF",
"q 	c #D8D8D8",
"r 	c #D6D6D6",
"s 	c #D4D4D4",
"t 	c #D2D2D2",
"u 	c #D1D1D1",
"v 	c #CECECE",
"w 	c #C7C7C7",
"x 	c #C1C1C1",
"y 	c #F5F5F5",
"z 	c #EBEBEB",
"A 	c #E6E6E6",
"B 	c #E3E3E3",
"C 	c #E1E1E1",
"D 	c #E0E0E0",
"E 	c #DCDCDC",
"F 	c #D9D9D9",
"G 	c #CCCCCC",
"H 	c #F4F4F4",
"I 	c #EDEDED",
"J 	c #EAEAEA",
"K 	c #E9E9E9",
"L 	c #E2E2E2",
"M 	c #CACACA",
"N 	c #FCFCFC",
"O 	c #F3F3F3",
"P 	c #F2F2F2",
"Q 	c #D7D7D7",
"R 	c #FEFEFE",
"S 	c #F9F9F9",
"T 	c #E4E4E4",
"U 	c #FDFDFD",
"V 	c #DADADA",
"W 	c #FFFFFF",
"X 	c #5F5F5F",
"Y 	c #414141",
"Z 	c #A3A3A3",
"` 	c #484848",
" .	c #8C8C8C",
"..	c #878787",
"+.	c #9D9D9D",
"@.	c #494949",
"#.	c #555555",
"$.	c #767676",
"%.	c #4D4D4D",
"&.	c #404040",
"*.	c #000000",
"=.	c #1B1B1B",
"-.	c #363636",
";.	c #181818",
">.	c #1E1E1E",
",.	c #727272",
"'.	c #0C0C0C",
").	c #222222",
"!.	c #4C4C4C",
"~.	c #040404",
"{.	c #808080",
"].	c #292929",
"^.	c #030303",
"/.	c #4F4F4F",
"(.	c #323232",
"_.	c #121212",
":.	c #010101",
"<.	c #545454",
"[.	c #333333",
"}.	c #838383",
"|.	c #0F0F0F",
"1.	c #5B5B5B",
"2.	c #A2A2A2",
"3.	c #020202",
"4.	c #646464",
"5.	c #707070",
"6.	c #0E0E0E",
"7.	c #858585",
"8.	c #060606",
"9.	c #2B2B2B",
"0.	c #0B0B0B",
"a.	c #3B3B3B",
"b.	c #676767",
"c.	c #252525",
"d.	c #4A4A4A",
"e.	c #7C7C7C",
"f.	c #1C1C1C",
"g.	c #191919",
"h.	c #050505",
"i.	c #151515",
"j.	c #A4A4A4",
"k.	c #4B4B4B",
"l.	c #626262",
"m.	c #A5A5A5",
"n.	c #383838",
"o.	c #232323",
"p.	c #969696",
"q.	c #303030",
"r.	c #4E4E4E",
"s.	c #5D5D5D",
"t.	c #6A6A6A",
"u.	c #161616",
"v.	c #1A1A1A",
"w.	c #7B7B7B",
"x.	c #373737",
"y.	c #5A5A5A",
"z.	c #070707",
"A.	c #454545",
"B.	c #2C2C2C",
"C.	c #1F1F1F",
"D.	c #7D7D7D",
"E.	c #080808",
"F.	c #111111",
"G.	c #7A7A7A",
"H.	c #8A8A8A",
"I.	c #8D8D8D",
"J.	c #464646",
"K.	c #434343",
"L.	c #313131",
"M.	c #1D1D1D",
"N.	c #424242",
"O.	c #131313",
"P.	c #919191",
"Q.	c #0A0A0A",
"R.	c #777777",
"S.	c #6E6E6E",
"T.	c #090909",
"U.	c #898989",
"V.	c #797979",
"W.	c #282828",
"X.	c #A6A6A6",
"Y.	c #393939",
"Z.	c #444444",
"`.	c #686868",
" +	c #2A2A2A",
".+	c #949494",
"++	c #0D0D0D",
"@+	c #A1A1A1",
"#+	c #717171",
"$+	c #3C3C3C",
"%+	c #8B8B8B",
"&+	c #262626",
"*+	c #515151",
"=+	c #272727",
"-+	c #989898",
";+	c #101010",
">+	c #202020",
",+	c #9F9F9F",
"'+	c #6C6C6C",
")+	c #242424",
"!+	c #2F2F2F",
"~+	c #636363",
"{+	c #616161",
"]+	c #909090",
"^+	c #535353",
"/+	c #505050",
"(+	c #696969",
"_+	c #171717",
":+	c #3F3F3F",
"<+	c #CDCDCD",
"[+	c #A0A0A0",
"}+	c #474747",
"|+	c #888888",
"1+	c #353535",
"2+	c #868686",
"3+	c #959595",
"4+	c #979797",
"5+	c #9E9E9E",
"6+	c #575757",
"7+	c #666666",
"8+	c #9B9B9B",
"9+	c #818181",
"0+	c #FFF0F0",
"a+	c #FF1C1C",
"b+	c #FF0000",
"c+	c #FF6060",
"d+	c #FFB4B4",
"e+	c #FFEEEE",
"f+	c #FF1A1A",
"g+	c #FF0F0F",
"h+	c #FF5C5C",
"i+	c #FF9E9E",
"j+	c #FFB1B1",
"k+	c #FF4B4B",
"l+	c #FFECEC",
"m+	c #FF1717",
"n+	c #FF1111",
"o+	c #FFE5E5",
"p+	c #FF5757",
"q+	c #FFA2A2",
"r+	c #848484",
"s+	c #8E8E8E",
"t+	c #757575",
"u+	c #606060",
"v+	c #585858",
"w+	c #787878",
"x+	c #C4C4C4",
"y+	c #747474",
"z+	c #3A3A3A",
"A+	c #7E7E7E",
"B+	c #141414",
"C+	c #2D2D2D",
"D+	c #8F8F8F",
"E+	c #5E5E5E",
"F+	c #999999",
"G+	c #343434",
"H+	c #6F6F6F",
". + @ # $ % & * = - - - - - - - - - - - - - - - - - - - - - - - - - - - - - - - - - - - - - - - - - - - - - - - - - - - - - - - - - - - - - ; ; > > , , ; = ' % ",
") ! ~ { ] ^ / ( & _ : : : : : : : : : : : : : : : : : : : : : : : : : : : : : : : : : : : : : : : : : : : : : : : : : : : : : : : : : : : : : * < = [ - [ < _ } ",
"| 1 ! ~ { # 2 $ 3 4 5 5 5 5 5 5 5 5 5 5 5 5 5 5 5 5 5 5 5 5 5 5 5 5 5 5 5 5 5 5 5 5 5 5 5 5 5 5 5 5 5 5 5 5 5 5 5 5 5 5 5 5 5 5 5 5 5 5 5 5 5 / % 6 7 ' _ ' ( / ",
"8 8 9 0 a b c d e ] ] ] ] ] ] ] ] ] ] ] ] ] ] ] ] ] ] ] ] ] ] ] ] ] ] ] ] ] ] ] ] ] ] ] ] ] ] ] ] ] ] ] ] ] ] ] ] ] ] ] ] ] ] ] ] ] ] ] ] ] f 2 g h i j / % 5 3 ",
"k l m n o ! p ~ q r b b b b b b b b b b b b b b b b b b b b b b b b b b b b b b b b b b b b b b b b b b b b b b b b b b b b b b b b b b b b s t u v d w 2 h h x ",
"0 ) y 8 l 9 z A B C C C C C C C C C C C C C C C C C C C C C C C C C C C C C C C C C C C C C C C C C C C C C C C C C C C C C C C C C C C C C D + E F b u G e ] ] ",
"C A o H m 8 y k I z z z z z z z z z z z z z z z z z z z z z z z z z z z z z z z z z z z z z z z z z z z z z z z z z z z z z z z z z z z z z J K A L + F @ v d M ",
"~ D A I y m N | y O O O O O O O O O O O O O O O O O O O O O O O O O O O O O O O O O O O O O O O O O O O O O O O O O O O O O O O O O O O O O P k I J ! D q @ c v ",
"Q ~ D . 1 y m R N 8 8 8 8 8 8 8 8 8 8 8 8 8 8 8 8 8 8 8 8 8 8 8 8 8 8 8 8 8 8 8 8 8 8 8 8 8 8 8 8 8 8 8 8 8 8 8 8 8 8 8 8 8 8 8 8 8 8 8 8 8 S l H k z ! + q s u ",
"b q a T o P | N R U U U U U U U U U U U U U U U U U U U U U U U U U U U U U U U U U U U U U U U U U U U U U U U U U U U U U U U U U U U U U N 8 l O ) 0 D V r @ ",
"@ Q E L J k n 8 U R W W W W W W W W W W W W W W W W W W W W W W W W W W W W W W W W W W W W W W W W W W W W W W W W W W W W W W W W W W W W R N S y k J C ~ Q @ ",
"@ Q ~ L J k y S N R W W W W W W W W W W W W W W W W W W W W W W W W W W W W W W W W W W W W W W W W W W W W W W W W W W W W W W W W W W W W R N S y k J L ~ Q @ ",
"@ Q ~ L J k y S N R W W W W W W W W W W W W W W W W W W W W W W W W W W W W W W W W W W W W W W W W W W W W W W W W W W W W W W W W W W W W R N S y k J L ~ Q @ ",
"@ Q ~ L J k y S N R W W W W W W W W W W W W W W W W W W W W W W W W W W W W W W W W W W W W W W W W W W W W W W W W W W W W W W W W W W W W R N S y k J L ~ Q @ ",
"@ Q ~ L J k y S N R W W W W W W W W W W W W W W W W W W W W W W W W W W W W W W W W W W W W W W W W W W W W W W W W W W W W W W W W W W W W R N S y k J L ~ Q @ ",
"@ Q ~ L J k y S N R W W W W W W W W W W W W W W W W W W W W W W W W W W W W W W W W W W W W W W W W W W W W W W W W W W W W W W W W W W W W R N S y k J L ~ Q @ ",
"@ Q ~ L J k y S N R W W W W W W W W W W W W W W W W W W W W W W W W W W W W W W W W W W W W W W W W W W W W W W W W W W W W W W W W W W W W R N S y k J L ~ Q @ ",
"@ Q ~ L J k y S N R ] X Y 7 W W W W W W W W W 8 Z `  .P W ^ ..^ l W W W W W W o { Q S W W W W W R C +.+.0 H < @.#.F W W W W W W W W W | $.%._ l S y k J L ~ Q @ ",
"@ Q ~ L J k y S N R &.*.*.=.t W W W W W W W W q -.*.=.< I ;.*.>.5 R W W W W K ,.'.).5 W W W W W P !.~.*.{.v ].*.^./.B W W W W W W W W x ~.*.(.V S y k J L ~ Q @ ",
"@ Q ~ L J k y S N R _.*.*.:.<.K W W W W W W W @ [.*.~.}.b |.*.*.1.| W W W N 2._.*.3.4.H W W W W $ ~.*.*.5.i '.*.*.6.7.H W W W W W W W 4 ~.*.8.g S y k J L ~ Q @ ",
"@ Q ~ L J k y S N R 9.*.*.*.0.7.8 W W W W W W D a.*.*.b.K c.*.*.0.O W W W . d.*.*.*.&.F W W W W e.*.*.*./ ] f.*.*.*.g.3 R W W W W W W v h.*.*.+.S y k J L ~ Q @ ",
"@ Q ~ L J k y S N R -.*.*.*.*.i.j.m W W W W W S k.*.*.l.I ..*.*.*.m.W W W 4 8.*.*.*.].2 W W W S n.*.*.-.K M o.*.*.*.*.o.~ W W W W W W y 8.*.*.p.S y k J L ~ Q @ ",
"@ Q ~ L J k y S N R #.*.*.*.*.*.q.c W W W W W W r.*.*.l.I u '.*.*.s.W W W t.*.*.*.*.u.& W W W w v.*.*.w.n b x.*.*.*.*.*.y.) W W W W W W z.*.*.p.S y k J L ~ Q @ ",
"@ Q ~ L J k y S N R 4.*.*.8.*.*.*./.9 W W W W W r.*.*.l.I o A.*.*.B.I W W C.*.*.*.*.z.j.W W W D.E.*.F.* U ~ Y *.:.h.*.*.0...n W W W W W z.*.*.p.S y k J L ~ Q @ ",
"@ Q ~ L J k y S N R 4.*.*.9.r.*.*.8.G.| W W W W r.*.*.l.I S H.*.*.;.$ W v h.*.*.*.*.*.I.8 W B J.*.*.&.q W ~ Y *.h.K.L.*.*.M.> N W W W W z.*.*.p.S y k J L ~ Q @ ",
"@ Q ~ L J k y S N R 4.*.*.x.a N.^.*.O.P.y W W W r.*.*.l.I W i =.*.Q.7.W R.3.*.3.Q.*.*.S.9 R , u.*.T.U.W W ~ Y *.8.V.( c.:.*.W.j R W W W z.*.*.p.S y k J L ~ Q @ ",
"@ Q ~ L J k y S N R 4.*.*.x.U 4 9.:.*.>.X.8 W W r.*.*.l.I W E A.*.:.y.! Y.*.*.=.Z.*.*.Y T 1 `.*.*. +v W W ~ Y *.8.V.8 .+++*.*.L.r W W W z.*.*.p.S y k J L ~ Q @ ",
"@ Q ~ L J k y S N R 4.*.*.x.W l @+_.*.*. +/ W W r.*.*.l.I W S #+3.*.$+%+=.*.*.X }.*.*.;.q s &+*.^.`.| W W ~ Y *.8.V.W 9 #+*.*.*.*+V W W z.*.*.p.S y k J L ~ Q @ ",
"@ Q ~ L J k y S N R 4.*.*.x.W W l H.*.*.*.=+w W r.*.*.l.I W W -+;+*.>+q.~.*.6.,+g *.*.3.3 .+^.*.T.d W W W ~ Y *.8.V.W W T <.*.*.h.<.a W z.*.*.p.S y k J L ~ Q @ ",
"@ Q ~ L J k y S N R 4.*.*.x.W W W S '+Q.*.:.x.d d.*.*.l.I W W x )+*.*.*.*.:.` p y h.*.*.,.!+*.*.%.W W W W ~ Y *.8.V.W W W q d.h.*.~.~+p 8.*.*.p.S y k J L ~ Q @ ",
"@ Q ~ L J k y S N R 4.*.*.x.W W W W A {+E.*.3.x.>+*.*.l.I W W J n.*.*.*.*.++]+W W &+*.*.c.*.*.z.[ W W W W ~ Y *.8.V.W W W W d a.:.*.~.^+^.*.*.p.S y k J L ~ Q @ ",
"@ Q ~ L J k y S N R 4.*.*.x.W W W W W Q d.^.*.*.*.*.*.l.I W W W s.3.*.*.*.)+a W W #.*.*.*.*.*.n.! W W W W ~ Y *.8.V.W W W W W ^ >.*.*.*.*.*.*.p.S y k J L ~ Q @ ",
"@ Q ~ L J k y S N R /+*.*.x.W W W W W R F -.*.*.*.*.*.l.I W W W  .h.*.*.*.(+U W W I.*.*.*.*.*.%+S W W W W @ [.*.8.V.W W W W W U & _+*.*.*.*.*.p.S y k J L ~ Q @ ",
"@ Q ~ L J k y S N R q.*.*.x.W W W W W W W 0 :+h.*.*.*.(+9 W W W <+Q.*.*.*.x W W W g h.*.*.*.L.G W W W W W e C.*.8.V.W W W W W W U 5  +3.*.*.*.[+S y k J L ~ Q @ ",
"@ Q ~ L J k y S N R a.*.*.}+W W W W W W W R @ *+'.*.~.|+W W W W |  +*.*.T.T W W W a 1+*.*.8.'+9 W W W W W G &+*.E.2+W W W W W W W N _ Y.:.*.8.M S y k J L ~ Q @ ",
"@ Q ~ L J k y S N R D.Q.h.3+W W W W W W W W U E 4+&.*+f W W W W W 5+=+O.b.l W W W l %+Q.:.x.2 W W W W W W L 6+h.;.M W W W W W W W W m G V.n.7+T S y k J L ~ Q @ ",
"@ Q ~ L J k y S N R o 4 - I W W W W W W W W W W m C A 8 W W W W W y F t z W W W W W K 8+9+E 8 W W W W W W m L - 5 m W W W W W W W W W W H p z 8 S y k J L ~ Q @ ",
"@ Q ~ L J k y S N R W W W W W W W W W W W W W W W W W W W W W W W W W W W W W W W W W W W W W W W W W W W W W W W W W W W W W W W W W W W W R N S y k J L ~ Q @ ",
"@ Q ~ L J k y S N R W W W W W W W W W W W W W W W W W W W W W W W W W W W W W W W W W W W W W W W W W W W W W W W W W W W W W W W W W W W W R N S y k J L ~ Q @ ",
"@ Q ~ L J k y S N R W W W W W W W W W W W W W W W W W W W W W W W W W W W W W W W W W W W W W W W W W W W W W W W W W W W W W W W W W W W W R N S y k J L ~ Q @ ",
"@ Q ~ L J k y S N R W W W W W W W W W W W W W W W W W W W W W W W W W W W W W W W W W W W W W W W W W W W W W W W W W W W W W W W W W W W W R N S y k J L ~ Q @ ",
"@ Q ~ L J k y S N R W W W W W W W W W W W W W W W W W W W W W W W W W W W W W W W W W W W W W W W W W W W W W W W W W W W W W W W W W W W W R N S y k J L ~ Q @ ",
"@ Q ~ L J k y S N R W W W W W W W W W W W W W W W W W W W W W W W W W W W W W W W W W W W W W W W W 0+a+b+b+W W W W W W W W W W W W W W W W R N S y k J L ~ Q @ ",
"@ Q ~ L J k y S N R W W W W W W W W W W W W W W W W W W W W W W W W W W W W W W W W W W W W W W W W c+b+b+b+W W W W W W W W W W W W W W W W R N S y k J L ~ Q @ ",
"@ Q ~ L J k y S N R W W W W W W W W W W W W W W W W W W W W W W W W W W W W W W W W W W W W W W W d+b+b+b+b+W W W W W W W W W W W W W W W W R N S y k J L ~ Q @ ",
"@ Q ~ L J k y S N R W W W W W W W W W W W W W W W W W W W W W W W W W W W W W W W W W W W W W W e+f+g+b+b+b+W W W W W W W W W W W W W W W W R N S y k J L ~ Q @ ",
"@ Q ~ L J k y S N R W W W W W W W W W W W W W W W W W W W W W W W W W W W W W W W W W W W W W W h+b+i+b+b+b+W W W W W W W W W W W W W W W W R N S y k J L ~ Q @ ",
"@ Q ~ L J k y S N R W W W W W W W W W W W W W W W W W W W W W W W W W W W W W W W W W W W W W j+b+k+W b+b+b+W W W W W W W W W W W W W W W W R N S y k J L ~ Q @ ",
"@ Q ~ L J k y S N R W W W W W W W W W W W W W W W W W W W W W W W W W W W W W W W W W W W W l+m+n+o+W b+b+b+W W W W W W W W W W W W W W W W R N S y k J L ~ Q @ ",
"@ Q ~ L J k y S N R W W W W W W W W W W W W W W W W S d 5+# y W W W W W W W W O & 4+r W W W p+b+q+W W b+b+b+W W W W W W W W W W W W W W W W R N S y k J L ~ Q @ ",
"@ Q ~ L J k y S N R W W W W W W W W W W W W W W W W ~ ].*.f. .P W W W W W W m r+i.*.1+W W W b+b+b+b+b+b+b+b+b+b+W W W W W W W W W W W W W W R N S y k J L ~ Q @ ",
"@ Q ~ L J k y S N R W W W W W W W W W W W W W W W W b _+*.*.F.s+8 W W W W W X.6.*.*.6.W W W b+b+b+b+b+b+b+b+b+b+W W W W W W W W W W W W W W R N S y k J L ~ Q @ ",
"@ Q ~ L J k y S N R W W W W W W W W W W W W W W W W k ,.~.*.*.).( W W W W 2 =+*.*.*.{.W W W W W W W W b+b+b+W W W W W W W W W W W W W W W W R N S y k J L ~ Q @ ",
"@ Q ~ L J k y S N R W W W W W W W W W W W W W W W W W z (+E.*.*.1+f U R r Y.*.*.E.t+k W W W W W W W W b+b+b+W W W W W W W W W W W W W W W W R N S y k J L ~ Q @ ",
"@ Q ~ L J k y S N R W W W W W W W W W W W W W W W W W W + /+3.*.*.Z.D A u+8.*.~.r.V W W W W W W W W W b+b+b+W W W W W W W W W W W W W W W W R N S y k J L ~ Q @ ",
"@ Q ~ L J k y S N R W W W W W W W W W W W W W W W W W W W @ =+*.*.*.v+w+++*.*. +x+W W W W W W W W W W W W W W W W W W W W W W W W W W W W W R N S y k J L ~ Q @ ",
"@ Q ~ L J k y S N R W W W W W W W W W W W W W W W W W W W W } ;.*.*.~.++*.*.8.+.m W W W W W W W W W W W W W W W W W W W W W W W W W W W W W R N S y k J L ~ Q @ ",
"@ Q ~ L J k y S N R W W W W W W W W W W W W W W W W W W W W m ; _+*.*.*.*.8.y+W W W W W W W W W W W W W W W W W W W W W W W W W W W W W W W R N S y k J L ~ Q @ ",
"@ Q ~ L J k y S N R W W W W W W W W W W W W W W W W W W W W W ) 4.:.*.*.*.Y 0 W W W W W W W W W W W W W W W W W W W W W W W W W W W W W W W R N S y k J L ~ Q @ ",
"@ Q ~ L J k y S N R W W W W W W W W W W W W W W W W W W W W R M z+:.*.*.*.Y 0 W W W W W W W W W W W W W W W W W W W W W W W W W W W W W W W R N S y k J L ~ Q @ ",
"@ Q ~ L J k y S N R W W W W W W W W W W W W W W W W W W W W E a.~.*.*.*.*.8.A+W W W W W W W W W W W W W W W W W W W W W W W W W W W W W W W R N S y k J L ~ Q @ ",
"@ Q ~ L J k y S N R W W W W W W W W W W W W W W W W W W W A $+*.*.*.f.B+*.*.z.& U W W W W W W W W W W W W W W W W W W W W W W W W W W W W W R N S y k J L ~ Q @ ",
"@ Q ~ L J k y S N R W W W W W W W W W W W W W W W W W W V v+^.*.*.C+% D+;+*.*.!+u W W W W W W W W W W W W W W W W W W W W W W W W W W W W W R N S y k J L ~ Q @ ",
"@ Q ~ L J k y S N R W W W W W W W W W W W W W W W W W ! 7+T.*.*.>.[ m 0 X ^.*.z.E+L W W W W W W W W W W W W W W W W W W W W W W W W W W W W R N S y k J L ~ Q @ ",
"@ Q ~ L J k y S N R W W W W W W W W W W W W W W W W k V.'.*.*.g.F+n W R v G+*.*.0.|+y W W W W W W W W W W W W W W W W W W W W W W W W W W W R N S y k J L ~ Q @ ",
"@ Q ~ L J k y S N R W W W W W W W W W W W W W W W W V.*.*.*.g.; W W W W W _ =.*.*.8.4+W W W W W W W W W W W W W W W W W W W W W W W W W W W R N S y k J L ~ Q @ ",
"@ Q ~ L J k y S N R W W W W W W W W W W W W W W W W )+*.*.6.U.W W W W W W S e.~.*.*.Y W W W W W W W W W W W W W W W W W W W W W W W W W W W R N S y k J L ~ Q @ ",
"@ Q ~ L J k y S N R W W W W W W W W W W W W W W W W H+0.>+|+y W W W W W W W K 4.~.*.(+W W W W W W W W W W W W W W W W W W W W W W W W W W W R N S y k J L ~ Q @ ",
"@ Q ~ L J k y S N R W W W W W W W W W W W W W W W W o { Q y W W W W W W W W W K _ ' A W W W W W W W W W W W W W W W W W W W W W W W W W W W R N S y k J L ~ Q @ ",
"@ Q ~ C J k y S N R W W W W W W W W W W W W W W W W W W W W W W W W W W W W W W W W W W W W W W W W W W W W W W W W W W W W W W W W W W W W R U 8 n k J L E Q @ ",
"@ r V D 0 ) O l 8 N U U U U U U U U U U U U U U U U U U U U U U U U U U U U U U U U U U U U U U U U U U U U U U U U U U U U U U U U U U U U U R N | P o T a q b ",
"u s q + ! z k H l S 8 8 8 8 8 8 8 8 8 8 8 8 8 8 8 8 8 8 8 8 8 8 8 8 8 8 8 8 8 8 8 8 8 8 8 8 8 8 8 8 8 8 8 8 8 8 8 8 8 8 8 8 8 8 8 8 8 8 8 8 8 N R m y 1 . D ~ Q ",
"v c @ q D ! J I k P O O O O O O O O O O O O O O O O O O O O O O O O O O O O O O O O O O O O O O O O O O O O O O O O O O O O O O O O O O O O O y | N m y I A D ~ ",
"M d v @ F + L A K J z z z z z z z z z z z z z z z z z z z z z z z z z z z z z z z z z z z z z z z z z z z z z z z z z z z z z z z z z z z z z I k y 8 m H o A C ",
"] ] e G u b F E + D C C C C C C C C C C C C C C C C C C C C C C C C C C C C C C C C C C C C C C C C C C C C C C C C C C C C C C C C C C C C C B A z 9 l 8 y ) 0 ",
"x h h 2 w d v u t s b b b b b b b b b b b b b b b b b b b b b b b b b b b b b b b b b b b b b b b b b b b b b b b b b b b b b b b b b b b b r q ~ p ! o n m l k ",
"3 5 % / j i h g 2 f ] ] ] ] ] ] ] ] ] ] ] ] ] ] ] ] ] ] ] ] ] ] ] ] ] ] ] ] ] ] ] ] ] ] ] ] ] ] ] ] ] ] ] ] ] ] ] ] ] ] ] ] ] ] ] ] ] ] ] ] ] e d c b a 0 9 8 8 ",
"/ ( ' _ ' 7 6 % / 5 5 5 5 5 5 5 5 5 5 5 5 5 5 5 5 5 5 5 5 5 5 5 5 5 5 5 5 5 5 5 5 5 5 5 5 5 5 5 5 5 5 5 5 5 5 5 5 5 5 5 5 5 5 5 5 5 5 5 5 5 4 3 $ 2 # { ~ ! 1 | ",
"} _ < [ - [ = < * : : : : : : : : : : : : : : : : : : : : : : : : : : : : : : : : : : : : : : : : : : : : : : : : : : : : : : : : : : : : : _ & ( / ^ ] { ~ ! ) ",
"% ' = ; , , > > ; ; - - - - - - - - - - - - - - - - - - - - - - - - - - - - - - - - - - - - - - - - - - - - - - - - - - - - - - - - - - - - - = * & % $ # @ + . "};
